<?xml version="1.0" ?><svg viewBox="0 0 64 64" xmlns="http://www.w3.org/2000/svg"><g data-name="Layer 32" id="Layer_32"><polygon points="35.997 62 35.997 53 43.997 53 43.997 46 52.997 46 52.997 36 61.997 36 61.997 13 55.997 13 55.997 7 49.997 7 49.997 2 41.997 2 41.997 7 35.997 7 35.997 11 27.997 11 27.997 7 21.997 7 21.997 2 13.997 2 13.997 7 7.997 7 7.997 13 1.997 13 1.997 36 10.997 36 10.997 46 19.997 46 19.997 53 27.997 53 27.997 62 35.997 62" style="fill:#4f46e5"/><polygon points="23.997 49 23.997 42 14.997 42 14.997 32 5.997 32 5.997 17 11.997 17 11.997 11 23.997 11 23.997 15 39.997 15 39.997 11 51.997 11 51.997 17 57.997 17 57.997 32 48.997 32 48.997 42 39.997 42 39.997 49 23.997 49" style="fill: #4f46e5"/><path d="M62,12H57V7a1,1,0,0,0-1-1H51V2a1,1,0,0,0-1-1H42a1,1,0,0,0-1,1V6H36a1,1,0,0,0-1,1v3H29V7a1,1,0,0,0-1-1H23V2a1,1,0,0,0-1-1H14a1,1,0,0,0-1,1V6H8A1,1,0,0,0,7,7v5H2a1,1,0,0,0-1,1V36a1,1,0,0,0,1,1h8v9a1,1,0,0,0,1,1h8v6a1,1,0,0,0,1,1h7v8a1,1,0,0,0,1,1h8a1,1,0,0,0,1-1V54h7a1,1,0,0,0,1-1V47h8a1,1,0,0,0,1-1V37h8a1,1,0,0,0,1-1V13A1,1,0,0,0,62,12ZM61,35H53a1,1,0,0,0-1,1v9H44a1,1,0,0,0-1,1v6H36a1,1,0,0,0-1,1v8H29V53a1,1,0,0,0-1-1H21V46a1,1,0,0,0-1-1H12V36a1,1,0,0,0-1-1H3V14H8a1,1,0,0,0,1-1V8h5a1,1,0,0,0,1-1V3h6V7a1,1,0,0,0,1,1h5v3a1,1,0,0,0,1,1h8a1,1,0,0,0,1-1V8h5a1,1,0,0,0,1-1V3h6V7a1,1,0,0,0,1,1h5v5a1,1,0,0,0,1,1h5Z"/></g></svg>