<?xml version="1.0" ?><svg viewBox="0 0 32 32" xmlns="http://www.w3.org/2000/svg"><defs><style>.cls-1{fill:#8c9eff;}.cls-2{fill:#5f7cf9;}</style></defs><title/><g id="Star"><path class="cls-1" d="M27.93,13.36A2,2,0,0,0,26,12H19.82L17.91,5.81a2,2,0,0,0-3.82,0L12.18,12H6a2,2,0,0,0-1.21,3.59l5.13,3.9L8,25.73A2,2,0,0,0,8.73,28a2,2,0,0,0,2.36-.06L16,24.16l4.91,3.74A2,2,0,0,0,24,25.73l-1.92-6.24,5.13-3.9A2,2,0,0,0,27.93,13.36Z"/><path class="cls-2" d="M20.91,27.9A2,2,0,0,0,24,25.73l-1.92-6.24,5.13-3.9A2,2,0,0,0,26,12H19.82L17.91,5.81A2,2,0,0,0,16,4.4V24.16Z"/></g></svg>